<?xml version="1.0" standalone="no"?><!DOCTYPE svg PUBLIC "-//W3C//DTD SVG 1.1//EN" "http://www.w3.org/Graphics/SVG/1.1/DTD/svg11.dtd"><svg t="1698976704337" class="icon" viewBox="0 0 1024 1024" version="1.1" xmlns="http://www.w3.org/2000/svg" p-id="1214" xmlns:xlink="http://www.w3.org/1999/xlink" width="200" height="200"><path d="M725.333333 85.333333H298.666667L42.666667 512l256 426.666667h426.666666l256-426.666667L725.333333 85.333333z m-23.466666 810.666667H322.133333L91.733333 512 322.133333 128h377.6l230.4 384-228.266666 384z" fill="#000000" p-id="1215"></path><path d="M657.066667 234.666667H366.933333L192 512l174.933333 277.333333h290.133334L832 512l-174.933333-277.333333z m-23.466667 512H390.4l-147.2-234.666667 147.2-234.666667h243.2l147.2 234.666667-147.2 234.666667z" fill="#000000" p-id="1216"></path><path d="M435.2 362.666667h155.733333l93.866667 149.333333-93.866667 149.333333h-155.733333L341.333333 512l93.866667-149.333333z" fill="#000000" p-id="1217"></path><path d="M458.666667 405.333333l-66.133334 106.666667 66.133334 106.666667h108.8l66.133333-106.666667-66.133333-106.666667h-108.8z m130.133333-42.666666h-155.733333L341.333333 512l93.866667 149.333333h155.733333l93.866667-149.333333-96-149.333333z" fill="#000000" p-id="1218"></path></svg>